<?xml version="1.0" encoding="iso-8859-1"?>
<!-- Generator: Adobe Illustrator 19.0.0, SVG Export Plug-In . SVG Version: 6.00 Build 0)  -->
<svg version="1.1" id="Layer_1" xmlns="http://www.w3.org/2000/svg" xmlns:xlink="http://www.w3.org/1999/xlink" x="0px" y="0px"
	 viewBox="0 0 512 512" style="enable-background:new 0 0 512 512;" xml:space="preserve">
<path style="fill:#546A79;" d="M371.929,49.279c-3.73,6.451-5.858,13.921-5.858,21.897c0,10.367,3.598,19.878,9.599,27.382h-47.93
	V49.279H371.929z"/>
<path style="fill:#AFB6BB;" d="M375.67,98.558c-6.001-7.504-9.599-17.015-9.599-27.382c0-7.975,2.128-15.446,5.858-21.897
	c7.57-13.099,21.721-21.908,37.947-21.908c24.19,0,43.805,19.615,43.805,43.805c0,24.201-19.615,43.816-43.805,43.816
	C396.042,114.992,383.7,108.574,375.67,98.558z"/>
<polygon style="fill:#F4661E;" points="207.263,98.558 207.263,246.406 152.51,246.406 152.51,49.279 327.74,49.279 327.74,98.558 
	"/>
<polygon style="fill:#546A79;" points="294.884,459.967 300.358,503.772 59.415,503.772 64.9,459.967 86.797,459.967 
	272.976,459.967 "/>
<rect x="86.798" y="394.255" style="fill:#AFB6BB;" width="186.179" height="65.713"/>
<polygon style="fill:#F4661E;" points="272.976,355.924 272.976,394.255 86.797,394.255 86.797,355.924 119.653,355.924 
	240.119,355.924 "/>
<polygon style="fill:#AFB6BB;" points="240.119,290.211 240.119,355.924 119.653,355.924 119.653,290.211 152.51,290.211 
	207.263,290.211 "/>
<g>
	<path style="fill:#546A79;" d="M240.119,257.355v32.856h-32.856v-43.805h21.908C235.215,246.406,240.119,251.31,240.119,257.355z"
		/>
	<rect x="152.511" y="246.406" style="fill:#546A79;" width="54.753" height="43.805"/>
	<path style="fill:#546A79;" d="M152.51,246.406v43.805h-32.856v-32.856c0-6.045,4.904-10.948,10.948-10.948L152.51,246.406
		L152.51,246.406z"/>
</g>
<rect x="168.933" y="418.883" width="21.908" height="16.456"/>
<rect x="212.749" y="418.883" width="21.897" height="16.456"/>
<rect x="125.129" y="418.883" width="21.908" height="16.456"/>
<rect x="168.933" y="314.84" width="21.908" height="16.456"/>
<path d="M448.206,161.517h-30.103v-38.955c24.794-3.957,43.805-25.49,43.805-51.386c0-25.891-19.011-47.419-43.805-51.376V0h-16.456
	v19.83c-13.698,2.212-26.068,9.851-34.166,21.221h-223.2v197.127h-13.68c-10.574,0-19.176,8.602-19.176,19.176v90.341H78.569V451.74
	H57.637L50.092,512h259.586l-7.531-60.26h-20.944V347.696h-32.856v-90.341c0-10.574-8.602-19.176-19.176-19.176h-13.68V106.786
	h156.458c7.94,8.47,18.343,13.975,29.699,15.775v38.956h-30.103c-6.643,0-13.702,4.802-13.702,13.702v60.239h16.456v-57.485h27.349
	v35.577h16.456v-35.577h27.349v57.485h16.456v-60.239C461.908,166.319,454.849,161.517,448.206,161.517z M361.507,90.33h-25.539
	V57.507h23.705c-1.205,4.435-1.83,9.032-1.83,13.669C357.843,77.755,359.109,84.263,361.507,90.33z M130.602,254.634h13.68v27.349
	h-16.401v-24.629C127.881,255.854,129.101,254.634,130.602,254.634z M160.737,281.983v-27.349h38.298v27.349H160.737z
	 M95.025,402.482h169.723v49.257H95.025V402.482z M287.62,468.195l3.418,27.349H68.736l3.425-27.349H287.62z M264.748,386.027
	H95.025v-21.875h169.723L264.748,386.027L264.748,386.027z M127.881,347.696v-49.257h104.01v49.257H127.881z M229.171,254.634
	c1.501,0,2.721,1.22,2.721,2.721v24.629h-16.401v-27.349L229.171,254.634L229.171,254.634z M174.417,90.33v16.456h24.618v131.393
	h-38.298V57.507h158.775V90.33H174.417z M382.095,93.419c-5.101-6.377-7.797-14.07-7.797-22.243c0-6.253,1.643-12.401,4.754-17.781
	c6.344-10.977,18.154-17.796,30.822-17.796c19.617,0,35.577,15.96,35.577,35.577c0,19.623-15.96,35.588-35.577,35.588
	C399.02,106.764,388.892,101.896,382.095,93.419z"/>
<rect x="398.928" y="62.948" width="21.897" height="16.456"/>
<g>
</g>
<g>
</g>
<g>
</g>
<g>
</g>
<g>
</g>
<g>
</g>
<g>
</g>
<g>
</g>
<g>
</g>
<g>
</g>
<g>
</g>
<g>
</g>
<g>
</g>
<g>
</g>
<g>
</g>
</svg>
